<?xml version="1.0" encoding="utf-8" standalone="no"?>
<!DOCTYPE svg PUBLIC "-//W3C//DTD SVG 1.1//EN"
  "http://www.w3.org/Graphics/SVG/1.1/DTD/svg11.dtd">
<svg xmlns:xlink="http://www.w3.org/1999/xlink" width="288pt" height="216pt" viewBox="0 0 288 216" xmlns="http://www.w3.org/2000/svg" version="1.1">
 <metadata>
  <rdf:RDF xmlns:dc="http://purl.org/dc/elements/1.1/" xmlns:cc="http://creativecommons.org/ns#" xmlns:rdf="http://www.w3.org/1999/02/22-rdf-syntax-ns#">
   <cc:Work>
    <dc:type rdf:resource="http://purl.org/dc/dcmitype/StillImage"/>
    <dc:date>2026-02-21T20:02:30.657070</dc:date>
    <dc:format>image/svg+xml</dc:format>
    <dc:creator>
     <cc:Agent>
      <dc:title>Matplotlib v3.10.8, https://matplotlib.org/</dc:title>
     </cc:Agent>
    </dc:creator>
   </cc:Work>
  </rdf:RDF>
 </metadata>
 <defs>
  <style type="text/css">*{stroke-linejoin: round; stroke-linecap: butt}</style>
 </defs>
 <g id="figure_1">
  <g id="patch_1">
   <path d="M 0 216 
L 288 216 
L 288 0 
L 0 0 
z
" style="fill: #ffffff"/>
  </g>
  <g id="axes_1">
   <g id="patch_2">
    <path d="M 229.32 161.46 
C 229.32 138.840408 220.324818 117.124117 204.330351 101.129649 
C 188.335883 85.135182 166.619592 76.14 144 76.14 
C 121.380408 76.14 99.664117 85.135182 83.669649 101.129649 
C 67.675182 117.124117 58.68 138.840408 58.68 161.46 
L 144 161.46 
C 144 161.46 144 161.46 144 161.46 
C 144 161.46 144 161.46 144 161.46 
C 144 161.46 144 161.46 144 161.46 
C 144 161.46 144 161.46 144 161.46 
z
" style="fill: #ffffff"/>
   </g>
   <g id="patch_3">
    <path d="M 144 161.46 
C 144 161.46 144 161.46 144 161.46 
C 144 161.46 144 161.46 144 161.46 
L 127.810413 160.043595 
C 127.789811 160.279072 127.77435 160.514971 127.764039 160.751123 
C 127.753729 160.987274 127.748571 161.223623 127.748571 161.46 
z
" clip-path="url(#pc5e6e07327)" style="fill: #1f77b4"/>
   </g>
   <g id="patch_4">
    <path d="M 144 161.46 
C 144 161.46 144 161.46 144 161.46 
C 144 161.46 144 161.46 144 161.46 
L 144 161.46 
C 144 161.46 144 161.46 144 161.46 
C 144 161.46 144 161.46 144 161.46 
z
" clip-path="url(#pc5e6e07327)" style="fill: #1f77b4"/>
   </g>
   <g id="patch_5">
    <path d="M 144 161.46 
C 144 161.46 144 161.46 144 161.46 
C 144 161.46 144 161.46 144 161.46 
L 128.302325 157.253821 
C 128.241147 157.482143 128.184956 157.711773 128.133795 157.942547 
C 128.082634 158.173321 128.036514 158.405183 127.995467 158.637969 
z
" clip-path="url(#pc5e6e07327)" style="fill: #1f77b4"/>
   </g>
   <g id="patch_6">
    <path d="M 144 161.46 
C 144 161.46 144 161.46 144 161.46 
C 144 161.46 144 161.46 144 161.46 
L 128.728652 155.901684 
C 128.647807 156.123806 128.571817 156.347665 128.500737 156.573101 
C 128.429657 156.798538 128.363504 157.025498 128.302325 157.253821 
z
" clip-path="url(#pc5e6e07327)" style="fill: #1f77b4"/>
   </g>
   <g id="patch_7">
    <path d="M 144 161.46 
C 144 161.46 144 161.46 144 161.46 
C 144 161.46 144 161.46 144 161.46 
L 99.813611 140.855549 
C 99.51392 141.498239 99.228286 142.147391 98.956913 142.802543 
C 98.685541 143.457694 98.428494 144.118688 98.185957 144.785052 
z
" clip-path="url(#pc5e6e07327)" style="fill: #1f77b4"/>
   </g>
   <g id="patch_8">
    <path d="M 144 161.46 
C 144 161.46 144 161.46 144 161.46 
C 144 161.46 144 161.46 144 161.46 
L 129.92585 153.334286 
C 129.807662 153.538994 129.693953 153.746257 129.584807 153.955925 
C 129.47566 154.165594 129.371101 154.377619 129.271204 154.59185 
z
" clip-path="url(#pc5e6e07327)" style="fill: #1f77b4"/>
   </g>
   <g id="patch_9">
    <path d="M 144 161.46 
C 144 161.46 144 161.46 144 161.46 
C 144 161.46 144 161.46 144 161.46 
L 144 161.46 
C 144 161.46 144 161.46 144 161.46 
C 144 161.46 144 161.46 144 161.46 
z
" clip-path="url(#pc5e6e07327)" style="fill: #1f77b4"/>
   </g>
   <g id="patch_10">
    <path d="M 144 161.46 
C 144 161.46 144 161.46 144 161.46 
C 144 161.46 144 161.46 144 161.46 
L 144 161.46 
C 144 161.46 144 161.46 144 161.46 
C 144 161.46 144 161.46 144 161.46 
z
" clip-path="url(#pc5e6e07327)" style="fill: #1f77b4"/>
   </g>
   <g id="patch_11">
    <path d="M 144 161.46 
C 144 161.46 144 161.46 144 161.46 
C 144 161.46 144 161.46 144 161.46 
L 98.034019 115.494019 
C 97.365444 116.162593 96.711536 116.845675 96.07276 117.542776 
C 95.433985 118.239877 94.810494 118.950832 94.202734 119.675132 
z
" clip-path="url(#pc5e6e07327)" style="fill: #1f77b4"/>
   </g>
   <g id="patch_12">
    <path d="M 144 161.46 
C 144 161.46 144 161.46 144 161.46 
C 144 161.46 144 161.46 144 161.46 
L 123.107566 136.561367 
C 122.745416 136.865247 122.389939 137.176992 122.041388 137.49638 
C 121.692837 137.815768 121.351297 138.142722 121.017009 138.477009 
z
" clip-path="url(#pc5e6e07327)" style="fill: #1f77b4"/>
   </g>
   <g id="patch_13">
    <path d="M 144 161.46 
C 144 161.46 144 161.46 144 161.46 
C 144 161.46 144 161.46 144 161.46 
L 134.678564 148.147609 
C 134.484935 148.283189 134.294287 148.422978 134.106757 148.566875 
C 133.919227 148.710772 133.734858 148.858743 133.553783 149.010683 
z
" clip-path="url(#pc5e6e07327)" style="fill: #1f77b4"/>
   </g>
   <g id="patch_14">
    <path d="M 144 161.46 
C 144 161.46 144 161.46 144 161.46 
C 144 161.46 144 161.46 144 161.46 
L 144 161.46 
C 144 161.46 144 161.46 144 161.46 
C 144 161.46 144 161.46 144 161.46 
z
" clip-path="url(#pc5e6e07327)" style="fill: #1f77b4"/>
   </g>
   <g id="patch_15">
    <path d="M 144 161.46 
C 144 161.46 144 161.46 144 161.46 
C 144 161.46 144 161.46 144 161.46 
L 116.527398 102.544815 
C 115.670477 102.944404 114.822377 103.362641 113.983702 103.799227 
C 113.145026 104.235814 112.315976 104.690646 111.497143 105.1634 
z
" clip-path="url(#pc5e6e07327)" style="fill: #1f77b4"/>
   </g>
   <g id="patch_16">
    <path d="M 144 161.46 
C 144 161.46 144 161.46 144 161.46 
C 144 161.46 144 161.46 144 161.46 
L 132.883368 130.917305 
C 132.439125 131.078996 131.998462 131.250361 131.561695 131.431276 
C 131.124928 131.612191 130.692159 131.802613 130.263699 132.002407 
z
" clip-path="url(#pc5e6e07327)" style="fill: #1f77b4"/>
   </g>
   <g id="patch_17">
    <path d="M 144 161.46 
C 144 161.46 144 161.46 144 161.46 
C 144 161.46 144 161.46 144 161.46 
L 135.587642 130.064651 
C 135.130997 130.187009 134.677076 130.319314 134.226202 130.461474 
C 133.775329 130.603634 133.327611 130.755614 132.883368 130.917305 
z
" clip-path="url(#pc5e6e07327)" style="fill: #1f77b4"/>
   </g>
   <g id="patch_18">
    <path d="M 144 161.46 
C 144 161.46 144 161.46 144 161.46 
C 144 161.46 144 161.46 144 161.46 
L 144 161.46 
C 144 161.46 144 161.46 144 161.46 
C 144 161.46 144 161.46 144 161.46 
z
" clip-path="url(#pc5e6e07327)" style="fill: #1f77b4"/>
   </g>
   <g id="patch_19">
    <path d="M 144 161.46 
C 144 161.46 144 161.46 144 161.46 
C 144 161.46 144 161.46 144 161.46 
L 141.167189 129.080826 
C 140.696235 129.122029 140.226235 129.173503 139.757526 129.235209 
C 139.288817 129.296916 138.82151 129.368841 138.355938 129.450934 
z
" clip-path="url(#pc5e6e07327)" style="fill: #1f77b4"/>
   </g>
   <g id="patch_20">
    <path d="M 144 161.46 
C 144 161.46 144 161.46 144 161.46 
C 144 161.46 144 161.46 144 161.46 
L 144 145.208571 
C 143.763623 145.208571 143.527274 145.213729 143.291123 145.224039 
C 143.054971 145.23435 142.819072 145.249811 142.583595 145.270413 
z
" clip-path="url(#pc5e6e07327)" style="fill: #1f77b4"/>
   </g>
   <g id="patch_21">
    <path d="M 144 161.46 
C 144 161.46 144 161.46 144 161.46 
C 144 161.46 144 161.46 144 161.46 
L 149.665621 96.701652 
C 148.723712 96.619246 147.780117 96.557399 146.835509 96.516157 
C 145.890902 96.474914 144.945507 96.454286 144 96.454286 
z
" clip-path="url(#pc5e6e07327)" style="fill: #1f77b4"/>
   </g>
   <g id="patch_22">
    <path d="M 144 161.46 
C 144 161.46 144 161.46 144 161.46 
C 144 161.46 144 161.46 144 161.46 
L 149.644062 129.450934 
C 149.17849 129.368841 148.711183 129.296916 148.242474 129.235209 
C 147.773765 129.173503 147.303765 129.122029 146.832811 129.080826 
z
" clip-path="url(#pc5e6e07327)" style="fill: #1f77b4"/>
   </g>
   <g id="patch_23">
    <path d="M 144 161.46 
C 144 161.46 144 161.46 144 161.46 
C 144 161.46 144 161.46 144 161.46 
L 144 161.46 
C 144 161.46 144 161.46 144 161.46 
C 144 161.46 144 161.46 144 161.46 
z
" clip-path="url(#pc5e6e07327)" style="fill: #1f77b4"/>
   </g>
   <g id="patch_24">
    <path d="M 144 161.46 
C 144 161.46 144 161.46 144 161.46 
C 144 161.46 144 161.46 144 161.46 
L 149.558316 146.188652 
C 149.336194 146.107807 149.112335 146.031817 148.886899 145.960737 
C 148.661462 145.889657 148.434502 145.823504 148.206179 145.762325 
z
" clip-path="url(#pc5e6e07327)" style="fill: #1f77b4"/>
   </g>
   <g id="patch_25">
    <path d="M 144 161.46 
C 144 161.46 144 161.46 144 161.46 
C 144 161.46 144 161.46 144 161.46 
L 164.604451 117.273611 
C 163.961761 116.97392 163.312609 116.688286 162.657457 116.416913 
C 162.002306 116.145541 161.341312 115.888494 160.674948 115.645957 
z
" clip-path="url(#pc5e6e07327)" style="fill: #1f77b4"/>
   </g>
   <g id="patch_26">
    <path d="M 144 161.46 
C 144 161.46 144 161.46 144 161.46 
C 144 161.46 144 161.46 144 161.46 
L 176.502857 105.1634 
C 175.684024 104.690646 174.854974 104.235814 174.016298 103.799227 
C 173.177623 103.362641 172.329523 102.944404 171.472602 102.544815 
z
" clip-path="url(#pc5e6e07327)" style="fill: #1f77b4"/>
   </g>
   <g id="patch_27">
    <path d="M 144 161.46 
C 144 161.46 144 161.46 144 161.46 
C 144 161.46 144 161.46 144 161.46 
L 171.964309 121.522827 
C 171.383424 121.116087 170.793733 120.722068 170.195659 120.341052 
C 169.597584 119.960037 168.991268 119.592115 168.377143 119.23755 
z
" clip-path="url(#pc5e6e07327)" style="fill: #1f77b4"/>
   </g>
   <g id="patch_28">
    <path d="M 144 161.46 
C 144 161.46 144 161.46 144 161.46 
C 144 161.46 144 161.46 144 161.46 
L 175.338651 124.11205 
C 174.795425 123.65623 174.24232 123.212316 173.679729 122.780625 
C 173.117138 122.348933 172.545195 121.929568 171.964309 121.522827 
z
" clip-path="url(#pc5e6e07327)" style="fill: #1f77b4"/>
   </g>
   <g id="patch_29">
    <path d="M 144 161.46 
C 144 161.46 144 161.46 144 161.46 
C 144 161.46 144 161.46 144 161.46 
L 201.457477 104.002523 
C 200.621758 103.166805 199.767906 102.349419 198.89653 101.55095 
C 198.025154 100.752481 197.13646 99.973118 196.231085 99.213417 
z
" clip-path="url(#pc5e6e07327)" style="fill: #1f77b4"/>
   </g>
   <g id="patch_30">
    <path d="M 144 161.46 
C 144 161.46 144 161.46 144 161.46 
C 144 161.46 144 161.46 144 161.46 
L 156.449317 151.013783 
C 156.297376 150.832708 156.141504 150.654969 155.98181 150.480694 
C 155.822116 150.306419 155.658639 150.135648 155.491495 149.968505 
z
" clip-path="url(#pc5e6e07327)" style="fill: #1f77b4"/>
   </g>
   <g id="patch_31">
    <path d="M 144 161.46 
C 144 161.46 144 161.46 144 161.46 
C 144 161.46 144 161.46 144 161.46 
L 170.624782 142.817127 
C 170.353622 142.42987 170.074044 142.048575 169.78625 141.673514 
C 169.498456 141.298454 169.202513 140.929716 168.898633 140.567566 
z
" clip-path="url(#pc5e6e07327)" style="fill: #1f77b4"/>
   </g>
   <g id="patch_32">
    <path d="M 144 161.46 
C 144 161.46 144 161.46 144 161.46 
C 144 161.46 144 161.46 144 161.46 
L 186.22245 137.082857 
C 185.867885 136.468732 185.499963 135.862416 185.118948 135.264341 
C 184.737932 134.666267 184.343913 134.076576 183.937173 133.495691 
z
" clip-path="url(#pc5e6e07327)" style="fill: #1f77b4"/>
   </g>
   <g id="patch_33">
    <path d="M 144 161.46 
C 144 161.46 144 161.46 144 161.46 
C 144 161.46 144 161.46 144 161.46 
L 144 161.46 
C 144 161.46 144 161.46 144 161.46 
C 144 161.46 144 161.46 144 161.46 
z
" clip-path="url(#pc5e6e07327)" style="fill: #1f77b4"/>
   </g>
   <g id="patch_34">
    <path d="M 144 161.46 
C 144 161.46 144 161.46 144 161.46 
C 144 161.46 144 161.46 144 161.46 
L 159.271348 155.901684 
C 159.190502 155.679563 159.10482 155.459231 159.014362 155.240848 
C 158.923905 155.022464 158.828693 154.80608 158.728796 154.59185 
z
" clip-path="url(#pc5e6e07327)" style="fill: #1f77b4"/>
   </g>
   <g id="patch_35">
    <path d="M 144 161.46 
C 144 161.46 144 161.46 144 161.46 
C 144 161.46 144 161.46 144 161.46 
L 159.697675 157.253821 
C 159.636496 157.025498 159.570343 156.798538 159.499263 156.573101 
C 159.428183 156.347665 159.352193 156.123806 159.271348 155.901684 
z
" clip-path="url(#pc5e6e07327)" style="fill: #1f77b4"/>
   </g>
   <g id="patch_36">
    <path d="M 144 161.46 
C 144 161.46 144 161.46 144 161.46 
C 144 161.46 144 161.46 144 161.46 
L 144 161.46 
C 144 161.46 144 161.46 144 161.46 
C 144 161.46 144 161.46 144 161.46 
z
" clip-path="url(#pc5e6e07327)" style="fill: #1f77b4"/>
   </g>
   <g id="patch_37">
    <path d="M 144 161.46 
C 144 161.46 144 161.46 144 161.46 
C 144 161.46 144 161.46 144 161.46 
L 160.189587 160.043595 
C 160.168985 159.808117 160.143249 159.573117 160.112395 159.338763 
C 160.081542 159.104408 160.045579 158.870755 160.004533 158.637969 
z
" clip-path="url(#pc5e6e07327)" style="fill: #1f77b4"/>
   </g>
   <g id="patch_38">
    <path d="M 144 161.46 
C 144 161.46 144 161.46 144 161.46 
C 144 161.46 144 161.46 144 161.46 
L 160.251429 161.46 
C 160.251429 161.223623 160.246271 160.987274 160.235961 160.751123 
C 160.22565 160.514971 160.210189 160.279072 160.189587 160.043595 
z
" clip-path="url(#pc5e6e07327)" style="fill: #1f77b4"/>
   </g>
   <g id="matplotlib.axis_1">
    <g id="xtick_1">
     <g id="line2d_1">
      <path d="M 144 161.46 
L 58.68 161.46 
" clip-path="url(#pc5e6e07327)" style="fill: none; stroke: #b0b0b0; stroke-width: 0.8; stroke-linecap: square"/>
     </g>
     <g id="text_1">
      <!-- -90° -->
      <g transform="translate(34.013594 164.219375) scale(0.1 -0.1)">
       <defs>
        <path id="DejaVuSans-2d" d="M 313 2009 
L 1997 2009 
L 1997 1497 
L 313 1497 
L 313 2009 
z
" transform="scale(0.015625)"/>
        <path id="DejaVuSans-39" d="M 703 97 
L 703 672 
Q 941 559 1184 500 
Q 1428 441 1663 441 
Q 2288 441 2617 861 
Q 2947 1281 2994 2138 
Q 2813 1869 2534 1725 
Q 2256 1581 1919 1581 
Q 1219 1581 811 2004 
Q 403 2428 403 3163 
Q 403 3881 828 4315 
Q 1253 4750 1959 4750 
Q 2769 4750 3195 4129 
Q 3622 3509 3622 2328 
Q 3622 1225 3098 567 
Q 2575 -91 1691 -91 
Q 1453 -91 1209 -44 
Q 966 3 703 97 
z
M 1959 2075 
Q 2384 2075 2632 2365 
Q 2881 2656 2881 3163 
Q 2881 3666 2632 3958 
Q 2384 4250 1959 4250 
Q 1534 4250 1286 3958 
Q 1038 3666 1038 3163 
Q 1038 2656 1286 2365 
Q 1534 2075 1959 2075 
z
" transform="scale(0.015625)"/>
        <path id="DejaVuSans-30" d="M 2034 4250 
Q 1547 4250 1301 3770 
Q 1056 3291 1056 2328 
Q 1056 1369 1301 889 
Q 1547 409 2034 409 
Q 2525 409 2770 889 
Q 3016 1369 3016 2328 
Q 3016 3291 2770 3770 
Q 2525 4250 2034 4250 
z
M 2034 4750 
Q 2819 4750 3233 4129 
Q 3647 3509 3647 2328 
Q 3647 1150 3233 529 
Q 2819 -91 2034 -91 
Q 1250 -91 836 529 
Q 422 1150 422 2328 
Q 422 3509 836 4129 
Q 1250 4750 2034 4750 
z
" transform="scale(0.015625)"/>
        <path id="DejaVuSans-b0" d="M 1600 4347 
Q 1350 4347 1178 4173 
Q 1006 4000 1006 3750 
Q 1006 3503 1178 3333 
Q 1350 3163 1600 3163 
Q 1850 3163 2022 3333 
Q 2194 3503 2194 3750 
Q 2194 3997 2020 4172 
Q 1847 4347 1600 4347 
z
M 1600 4750 
Q 1800 4750 1984 4673 
Q 2169 4597 2303 4453 
Q 2447 4313 2519 4134 
Q 2591 3956 2591 3750 
Q 2591 3338 2302 3052 
Q 2013 2766 1594 2766 
Q 1172 2766 890 3047 
Q 609 3328 609 3750 
Q 609 4169 896 4459 
Q 1184 4750 1600 4750 
z
" transform="scale(0.015625)"/>
       </defs>
       <use xlink:href="#DejaVuSans-2d"/>
       <use xlink:href="#DejaVuSans-39" transform="translate(36.083984 0)"/>
       <use xlink:href="#DejaVuSans-30" transform="translate(99.707031 0)"/>
       <use xlink:href="#DejaVuSans-b0" transform="translate(163.330078 0)"/>
      </g>
     </g>
    </g>
    <g id="xtick_2">
     <g id="line2d_2">
      <path d="M 144 161.46 
L 83.669649 101.129649 
" clip-path="url(#pc5e6e07327)" style="fill: none; stroke: #b0b0b0; stroke-width: 0.8; stroke-linecap: square"/>
     </g>
     <g id="text_2">
      <!-- -45° -->
      <g transform="translate(63.103748 93.989529) scale(0.1 -0.1)">
       <defs>
        <path id="DejaVuSans-34" d="M 2419 4116 
L 825 1625 
L 2419 1625 
L 2419 4116 
z
M 2253 4666 
L 3047 4666 
L 3047 1625 
L 3713 1625 
L 3713 1100 
L 3047 1100 
L 3047 0 
L 2419 0 
L 2419 1100 
L 313 1100 
L 313 1709 
L 2253 4666 
z
" transform="scale(0.015625)"/>
        <path id="DejaVuSans-35" d="M 691 4666 
L 3169 4666 
L 3169 4134 
L 1269 4134 
L 1269 2991 
Q 1406 3038 1543 3061 
Q 1681 3084 1819 3084 
Q 2600 3084 3056 2656 
Q 3513 2228 3513 1497 
Q 3513 744 3044 326 
Q 2575 -91 1722 -91 
Q 1428 -91 1123 -41 
Q 819 9 494 109 
L 494 744 
Q 775 591 1075 516 
Q 1375 441 1709 441 
Q 2250 441 2565 725 
Q 2881 1009 2881 1497 
Q 2881 1984 2565 2268 
Q 2250 2553 1709 2553 
Q 1456 2553 1204 2497 
Q 953 2441 691 2322 
L 691 4666 
z
" transform="scale(0.015625)"/>
       </defs>
       <use xlink:href="#DejaVuSans-2d"/>
       <use xlink:href="#DejaVuSans-34" transform="translate(36.083984 0)"/>
       <use xlink:href="#DejaVuSans-35" transform="translate(99.707031 0)"/>
       <use xlink:href="#DejaVuSans-b0" transform="translate(163.330078 0)"/>
      </g>
     </g>
    </g>
    <g id="xtick_3">
     <g id="line2d_3">
      <path d="M 144 161.46 
L 144 76.14 
" clip-path="url(#pc5e6e07327)" style="fill: none; stroke: #b0b0b0; stroke-width: 0.8; stroke-linecap: square"/>
     </g>
     <g id="text_3">
      <!-- 0° -->
      <g transform="translate(138.31875 64.899375) scale(0.1 -0.1)">
       <use xlink:href="#DejaVuSans-30"/>
       <use xlink:href="#DejaVuSans-b0" transform="translate(63.623047 0)"/>
      </g>
     </g>
    </g>
    <g id="xtick_4">
     <g id="line2d_4">
      <path d="M 144 161.46 
L 204.330351 101.129649 
" clip-path="url(#pc5e6e07327)" style="fill: none; stroke: #b0b0b0; stroke-width: 0.8; stroke-linecap: square"/>
     </g>
     <g id="text_4">
      <!-- 45° -->
      <g transform="translate(205.367346 93.989529) scale(0.1 -0.1)">
       <use xlink:href="#DejaVuSans-34"/>
       <use xlink:href="#DejaVuSans-35" transform="translate(63.623047 0)"/>
       <use xlink:href="#DejaVuSans-b0" transform="translate(127.246094 0)"/>
      </g>
     </g>
    </g>
    <g id="xtick_5">
     <g id="line2d_5">
      <path d="M 144 161.46 
L 229.32 161.46 
" clip-path="url(#pc5e6e07327)" style="fill: none; stroke: #b0b0b0; stroke-width: 0.8; stroke-linecap: square"/>
     </g>
     <g id="text_5">
      <!-- 90° -->
      <g transform="translate(234.4575 164.219375) scale(0.1 -0.1)">
       <use xlink:href="#DejaVuSans-39"/>
       <use xlink:href="#DejaVuSans-30" transform="translate(63.623047 0)"/>
       <use xlink:href="#DejaVuSans-b0" transform="translate(127.246094 0)"/>
      </g>
     </g>
    </g>
   </g>
   <g id="matplotlib.axis_2">
    <g id="ytick_1">
     <g id="line2d_6">
      <path d="M 144 161.46 
C 144 161.46 144 161.46 144 161.46 
C 144 161.46 144 161.46 144 161.46 
C 144 161.46 144 161.46 144 161.46 
C 144 161.46 144 161.46 144 161.46 
" clip-path="url(#pc5e6e07327)" style="fill: none; stroke: #b0b0b0; stroke-width: 0.8; stroke-linecap: square"/>
     </g>
     <g id="text_6">
      <!-- 0 -->
      <g transform="translate(141.455 174.53875) scale(0.08 -0.08)">
       <use xlink:href="#DejaVuSans-30"/>
      </g>
     </g>
    </g>
    <g id="ytick_2">
     <g id="line2d_7">
      <path d="M 127.748571 161.46 
C 127.748571 157.151506 129.461939 153.01507 132.508505 149.968505 
C 135.55507 146.921939 139.691506 145.208571 144 145.208571 
C 148.308494 145.208571 152.44493 146.921939 155.491495 149.968505 
C 158.538061 153.01507 160.251429 157.151506 160.251429 161.46 
" clip-path="url(#pc5e6e07327)" style="fill: none; stroke: #b0b0b0; stroke-width: 0.8; stroke-linecap: square"/>
     </g>
     <g id="text_7">
      <!-- 1 -->
      <g transform="translate(125.203571 174.53875) scale(0.08 -0.08)">
       <defs>
        <path id="DejaVuSans-31" d="M 794 531 
L 1825 531 
L 1825 4091 
L 703 3866 
L 703 4441 
L 1819 4666 
L 2450 4666 
L 2450 531 
L 3481 531 
L 3481 0 
L 794 0 
L 794 531 
z
" transform="scale(0.015625)"/>
       </defs>
       <use xlink:href="#DejaVuSans-31"/>
      </g>
     </g>
    </g>
    <g id="ytick_3">
     <g id="line2d_8">
      <path d="M 95.245714 161.46 
C 95.245714 148.534519 100.385818 136.12521 109.525514 126.985514 
C 118.66521 117.845818 131.074519 112.705714 144 112.705714 
C 156.925481 112.705714 169.33479 117.845818 178.474486 126.985514 
C 187.614182 136.12521 192.754286 148.534519 192.754286 161.46 
" clip-path="url(#pc5e6e07327)" style="fill: none; stroke: #b0b0b0; stroke-width: 0.8; stroke-linecap: square"/>
     </g>
     <g id="text_8">
      <!-- 3 -->
      <g transform="translate(92.700714 174.53875) scale(0.08 -0.08)">
       <defs>
        <path id="DejaVuSans-33" d="M 2597 2516 
Q 3050 2419 3304 2112 
Q 3559 1806 3559 1356 
Q 3559 666 3084 287 
Q 2609 -91 1734 -91 
Q 1441 -91 1130 -33 
Q 819 25 488 141 
L 488 750 
Q 750 597 1062 519 
Q 1375 441 1716 441 
Q 2309 441 2620 675 
Q 2931 909 2931 1356 
Q 2931 1769 2642 2001 
Q 2353 2234 1838 2234 
L 1294 2234 
L 1294 2753 
L 1863 2753 
Q 2328 2753 2575 2939 
Q 2822 3125 2822 3475 
Q 2822 3834 2567 4026 
Q 2313 4219 1838 4219 
Q 1578 4219 1281 4162 
Q 984 4106 628 3988 
L 628 4550 
Q 988 4650 1302 4700 
Q 1616 4750 1894 4750 
Q 2613 4750 3031 4423 
Q 3450 4097 3450 3541 
Q 3450 3153 3228 2886 
Q 3006 2619 2597 2516 
z
" transform="scale(0.015625)"/>
       </defs>
       <use xlink:href="#DejaVuSans-33"/>
      </g>
     </g>
    </g>
    <g id="ytick_4">
     <g id="line2d_9">
      <path d="M 62.742857 161.46 
C 62.742857 139.917531 71.309697 119.235349 86.542523 104.002523 
C 101.775349 88.769697 122.457531 80.202857 144 80.202857 
C 165.542469 80.202857 186.224651 88.769697 201.457477 104.002523 
C 216.690303 119.235349 225.257143 139.917531 225.257143 161.46 
" clip-path="url(#pc5e6e07327)" style="fill: none; stroke: #b0b0b0; stroke-width: 0.8; stroke-linecap: square"/>
     </g>
     <g id="text_9">
      <!-- 5 -->
      <g transform="translate(60.197857 174.53875) scale(0.08 -0.08)">
       <use xlink:href="#DejaVuSans-35"/>
      </g>
     </g>
    </g>
   </g>
   <g id="patch_39">
    <path d="M 229.32 161.46 
C 229.32 138.840408 220.324818 117.124117 204.330351 101.129649 
C 188.335883 85.135182 166.619592 76.14 144 76.14 
C 121.380408 76.14 99.664117 85.135182 83.669649 101.129649 
C 67.675182 117.124117 58.68 138.840408 58.68 161.46 
" style="fill: none; stroke: #000000; stroke-width: 0.8; stroke-linejoin: miter; stroke-linecap: square"/>
   </g>
   <g id="patch_40">
    <path d="M 144 161.46 
L 58.68 161.46 
" style="fill: none; stroke: #000000; stroke-width: 0.8; stroke-linejoin: miter; stroke-linecap: square"/>
   </g>
   <g id="patch_41">
    <path d="M 144 161.46 
L 229.32 161.46 
" style="fill: none; stroke: #000000; stroke-width: 0.8; stroke-linejoin: miter; stroke-linecap: square"/>
   </g>
   <g id="text_10">
    <!-- Stomatal Orientation (Relative) -->
    <g transform="translate(42.58375 21.48) scale(0.13 -0.13)">
     <defs>
      <path id="DejaVuSans-53" d="M 3425 4513 
L 3425 3897 
Q 3066 4069 2747 4153 
Q 2428 4238 2131 4238 
Q 1616 4238 1336 4038 
Q 1056 3838 1056 3469 
Q 1056 3159 1242 3001 
Q 1428 2844 1947 2747 
L 2328 2669 
Q 3034 2534 3370 2195 
Q 3706 1856 3706 1288 
Q 3706 609 3251 259 
Q 2797 -91 1919 -91 
Q 1588 -91 1214 -16 
Q 841 59 441 206 
L 441 856 
Q 825 641 1194 531 
Q 1563 422 1919 422 
Q 2459 422 2753 634 
Q 3047 847 3047 1241 
Q 3047 1584 2836 1778 
Q 2625 1972 2144 2069 
L 1759 2144 
Q 1053 2284 737 2584 
Q 422 2884 422 3419 
Q 422 4038 858 4394 
Q 1294 4750 2059 4750 
Q 2388 4750 2728 4690 
Q 3069 4631 3425 4513 
z
" transform="scale(0.015625)"/>
      <path id="DejaVuSans-74" d="M 1172 4494 
L 1172 3500 
L 2356 3500 
L 2356 3053 
L 1172 3053 
L 1172 1153 
Q 1172 725 1289 603 
Q 1406 481 1766 481 
L 2356 481 
L 2356 0 
L 1766 0 
Q 1100 0 847 248 
Q 594 497 594 1153 
L 594 3053 
L 172 3053 
L 172 3500 
L 594 3500 
L 594 4494 
L 1172 4494 
z
" transform="scale(0.015625)"/>
      <path id="DejaVuSans-6f" d="M 1959 3097 
Q 1497 3097 1228 2736 
Q 959 2375 959 1747 
Q 959 1119 1226 758 
Q 1494 397 1959 397 
Q 2419 397 2687 759 
Q 2956 1122 2956 1747 
Q 2956 2369 2687 2733 
Q 2419 3097 1959 3097 
z
M 1959 3584 
Q 2709 3584 3137 3096 
Q 3566 2609 3566 1747 
Q 3566 888 3137 398 
Q 2709 -91 1959 -91 
Q 1206 -91 779 398 
Q 353 888 353 1747 
Q 353 2609 779 3096 
Q 1206 3584 1959 3584 
z
" transform="scale(0.015625)"/>
      <path id="DejaVuSans-6d" d="M 3328 2828 
Q 3544 3216 3844 3400 
Q 4144 3584 4550 3584 
Q 5097 3584 5394 3201 
Q 5691 2819 5691 2113 
L 5691 0 
L 5113 0 
L 5113 2094 
Q 5113 2597 4934 2840 
Q 4756 3084 4391 3084 
Q 3944 3084 3684 2787 
Q 3425 2491 3425 1978 
L 3425 0 
L 2847 0 
L 2847 2094 
Q 2847 2600 2669 2842 
Q 2491 3084 2119 3084 
Q 1678 3084 1418 2786 
Q 1159 2488 1159 1978 
L 1159 0 
L 581 0 
L 581 3500 
L 1159 3500 
L 1159 2956 
Q 1356 3278 1631 3431 
Q 1906 3584 2284 3584 
Q 2666 3584 2933 3390 
Q 3200 3197 3328 2828 
z
" transform="scale(0.015625)"/>
      <path id="DejaVuSans-61" d="M 2194 1759 
Q 1497 1759 1228 1600 
Q 959 1441 959 1056 
Q 959 750 1161 570 
Q 1363 391 1709 391 
Q 2188 391 2477 730 
Q 2766 1069 2766 1631 
L 2766 1759 
L 2194 1759 
z
M 3341 1997 
L 3341 0 
L 2766 0 
L 2766 531 
Q 2569 213 2275 61 
Q 1981 -91 1556 -91 
Q 1019 -91 701 211 
Q 384 513 384 1019 
Q 384 1609 779 1909 
Q 1175 2209 1959 2209 
L 2766 2209 
L 2766 2266 
Q 2766 2663 2505 2880 
Q 2244 3097 1772 3097 
Q 1472 3097 1187 3025 
Q 903 2953 641 2809 
L 641 3341 
Q 956 3463 1253 3523 
Q 1550 3584 1831 3584 
Q 2591 3584 2966 3190 
Q 3341 2797 3341 1997 
z
" transform="scale(0.015625)"/>
      <path id="DejaVuSans-6c" d="M 603 4863 
L 1178 4863 
L 1178 0 
L 603 0 
L 603 4863 
z
" transform="scale(0.015625)"/>
      <path id="DejaVuSans-20" transform="scale(0.015625)"/>
      <path id="DejaVuSans-4f" d="M 2522 4238 
Q 1834 4238 1429 3725 
Q 1025 3213 1025 2328 
Q 1025 1447 1429 934 
Q 1834 422 2522 422 
Q 3209 422 3611 934 
Q 4013 1447 4013 2328 
Q 4013 3213 3611 3725 
Q 3209 4238 2522 4238 
z
M 2522 4750 
Q 3503 4750 4090 4092 
Q 4678 3434 4678 2328 
Q 4678 1225 4090 567 
Q 3503 -91 2522 -91 
Q 1538 -91 948 565 
Q 359 1222 359 2328 
Q 359 3434 948 4092 
Q 1538 4750 2522 4750 
z
" transform="scale(0.015625)"/>
      <path id="DejaVuSans-72" d="M 2631 2963 
Q 2534 3019 2420 3045 
Q 2306 3072 2169 3072 
Q 1681 3072 1420 2755 
Q 1159 2438 1159 1844 
L 1159 0 
L 581 0 
L 581 3500 
L 1159 3500 
L 1159 2956 
Q 1341 3275 1631 3429 
Q 1922 3584 2338 3584 
Q 2397 3584 2469 3576 
Q 2541 3569 2628 3553 
L 2631 2963 
z
" transform="scale(0.015625)"/>
      <path id="DejaVuSans-69" d="M 603 3500 
L 1178 3500 
L 1178 0 
L 603 0 
L 603 3500 
z
M 603 4863 
L 1178 4863 
L 1178 4134 
L 603 4134 
L 603 4863 
z
" transform="scale(0.015625)"/>
      <path id="DejaVuSans-65" d="M 3597 1894 
L 3597 1613 
L 953 1613 
Q 991 1019 1311 708 
Q 1631 397 2203 397 
Q 2534 397 2845 478 
Q 3156 559 3463 722 
L 3463 178 
Q 3153 47 2828 -22 
Q 2503 -91 2169 -91 
Q 1331 -91 842 396 
Q 353 884 353 1716 
Q 353 2575 817 3079 
Q 1281 3584 2069 3584 
Q 2775 3584 3186 3129 
Q 3597 2675 3597 1894 
z
M 3022 2063 
Q 3016 2534 2758 2815 
Q 2500 3097 2075 3097 
Q 1594 3097 1305 2825 
Q 1016 2553 972 2059 
L 3022 2063 
z
" transform="scale(0.015625)"/>
      <path id="DejaVuSans-6e" d="M 3513 2113 
L 3513 0 
L 2938 0 
L 2938 2094 
Q 2938 2591 2744 2837 
Q 2550 3084 2163 3084 
Q 1697 3084 1428 2787 
Q 1159 2491 1159 1978 
L 1159 0 
L 581 0 
L 581 3500 
L 1159 3500 
L 1159 2956 
Q 1366 3272 1645 3428 
Q 1925 3584 2291 3584 
Q 2894 3584 3203 3211 
Q 3513 2838 3513 2113 
z
" transform="scale(0.015625)"/>
      <path id="DejaVuSans-28" d="M 1984 4856 
Q 1566 4138 1362 3434 
Q 1159 2731 1159 2009 
Q 1159 1288 1364 580 
Q 1569 -128 1984 -844 
L 1484 -844 
Q 1016 -109 783 600 
Q 550 1309 550 2009 
Q 550 2706 781 3412 
Q 1013 4119 1484 4856 
L 1984 4856 
z
" transform="scale(0.015625)"/>
      <path id="DejaVuSans-52" d="M 2841 2188 
Q 3044 2119 3236 1894 
Q 3428 1669 3622 1275 
L 4263 0 
L 3584 0 
L 2988 1197 
Q 2756 1666 2539 1819 
Q 2322 1972 1947 1972 
L 1259 1972 
L 1259 0 
L 628 0 
L 628 4666 
L 2053 4666 
Q 2853 4666 3247 4331 
Q 3641 3997 3641 3322 
Q 3641 2881 3436 2590 
Q 3231 2300 2841 2188 
z
M 1259 4147 
L 1259 2491 
L 2053 2491 
Q 2509 2491 2742 2702 
Q 2975 2913 2975 3322 
Q 2975 3731 2742 3939 
Q 2509 4147 2053 4147 
L 1259 4147 
z
" transform="scale(0.015625)"/>
      <path id="DejaVuSans-76" d="M 191 3500 
L 800 3500 
L 1894 563 
L 2988 3500 
L 3597 3500 
L 2284 0 
L 1503 0 
L 191 3500 
z
" transform="scale(0.015625)"/>
      <path id="DejaVuSans-29" d="M 513 4856 
L 1013 4856 
Q 1481 4119 1714 3412 
Q 1947 2706 1947 2009 
Q 1947 1309 1714 600 
Q 1481 -109 1013 -844 
L 513 -844 
Q 928 -128 1133 580 
Q 1338 1288 1338 2009 
Q 1338 2731 1133 3434 
Q 928 4138 513 4856 
z
" transform="scale(0.015625)"/>
     </defs>
     <use xlink:href="#DejaVuSans-53"/>
     <use xlink:href="#DejaVuSans-74" transform="translate(63.476562 0)"/>
     <use xlink:href="#DejaVuSans-6f" transform="translate(102.685547 0)"/>
     <use xlink:href="#DejaVuSans-6d" transform="translate(163.867188 0)"/>
     <use xlink:href="#DejaVuSans-61" transform="translate(261.279297 0)"/>
     <use xlink:href="#DejaVuSans-74" transform="translate(322.558594 0)"/>
     <use xlink:href="#DejaVuSans-61" transform="translate(361.767578 0)"/>
     <use xlink:href="#DejaVuSans-6c" transform="translate(423.046875 0)"/>
     <use xlink:href="#DejaVuSans-20" transform="translate(450.830078 0)"/>
     <use xlink:href="#DejaVuSans-4f" transform="translate(482.617188 0)"/>
     <use xlink:href="#DejaVuSans-72" transform="translate(561.328125 0)"/>
     <use xlink:href="#DejaVuSans-69" transform="translate(602.441406 0)"/>
     <use xlink:href="#DejaVuSans-65" transform="translate(630.224609 0)"/>
     <use xlink:href="#DejaVuSans-6e" transform="translate(691.748047 0)"/>
     <use xlink:href="#DejaVuSans-74" transform="translate(755.126953 0)"/>
     <use xlink:href="#DejaVuSans-61" transform="translate(794.335938 0)"/>
     <use xlink:href="#DejaVuSans-74" transform="translate(855.615234 0)"/>
     <use xlink:href="#DejaVuSans-69" transform="translate(894.824219 0)"/>
     <use xlink:href="#DejaVuSans-6f" transform="translate(922.607422 0)"/>
     <use xlink:href="#DejaVuSans-6e" transform="translate(983.789062 0)"/>
     <use xlink:href="#DejaVuSans-20" transform="translate(1047.167969 0)"/>
     <use xlink:href="#DejaVuSans-28" transform="translate(1078.955078 0)"/>
     <use xlink:href="#DejaVuSans-52" transform="translate(1117.96875 0)"/>
     <use xlink:href="#DejaVuSans-65" transform="translate(1182.951172 0)"/>
     <use xlink:href="#DejaVuSans-6c" transform="translate(1244.474609 0)"/>
     <use xlink:href="#DejaVuSans-61" transform="translate(1272.257812 0)"/>
     <use xlink:href="#DejaVuSans-74" transform="translate(1333.537109 0)"/>
     <use xlink:href="#DejaVuSans-69" transform="translate(1372.746094 0)"/>
     <use xlink:href="#DejaVuSans-76" transform="translate(1400.529297 0)"/>
     <use xlink:href="#DejaVuSans-65" transform="translate(1459.708984 0)"/>
     <use xlink:href="#DejaVuSans-29" transform="translate(1521.232422 0)"/>
    </g>
   </g>
  </g>
 </g>
 <defs>
  <clipPath id="pc5e6e07327">
   <path d="M 229.32 161.46 
C 229.32 138.840408 220.324818 117.124117 204.330351 101.129649 
C 188.335883 85.135182 166.619592 76.14 144 76.14 
C 121.380408 76.14 99.664117 85.135182 83.669649 101.129649 
C 67.675182 117.124117 58.68 138.840408 58.68 161.46 
L 144 161.46 
C 144 161.46 144 161.46 144 161.46 
C 144 161.46 144 161.46 144 161.46 
C 144 161.46 144 161.46 144 161.46 
C 144 161.46 144 161.46 144 161.46 
z
"/>
  </clipPath>
 </defs>
</svg>
